<?xml version="1.0" encoding="UTF-8"?> <svg xmlns="http://www.w3.org/2000/svg" width="591" height="591" viewBox="0 0 591 591" fill="none"><path fill-rule="evenodd" clip-rule="evenodd" d="M295.274 134.786L429.908 0.152298L590.273 0.150391L590.273 160.518L455.64 295.151L590.273 429.784L590.273 590.152L429.907 590.15L295.274 455.517L160.641 590.15L0.273628 590.15L0.275552 429.784L134.909 295.151L0.275359 160.518L0.273438 0.151878L160.641 0.15224L295.274 134.786ZM263.44 166.619L141.993 45.172L45.2938 45.1718L45.2949 141.87L166.742 263.317L263.44 166.619ZM198.576 295.151L295.274 198.453L391.972 295.151L295.274 391.849L198.576 295.151ZM166.742 326.985L45.2951 448.432L45.2939 545.13L141.993 545.13L263.44 423.683L166.742 326.985ZM327.108 423.683L448.555 545.13L545.253 545.131L545.253 448.432L423.806 326.985L327.108 423.683ZM423.806 263.317L327.108 166.619L448.556 45.1719L545.254 45.1707L545.253 141.87L423.806 263.317Z" fill="#0CC2FF"></path></svg> 